<svg width="16" height="15" viewBox="0 0 16 15" fill="none" xmlns="http://www.w3.org/2000/svg">
<path d="M0.500977 0.5C0.500977 0.367392 0.553655 0.240215 0.647423 0.146447C0.741191 0.0526784 0.868368 0 1.00098 0H2.50098C2.61251 3.08115e-05 2.72083 0.0373507 2.80871 0.106025C2.89659 0.174699 2.95899 0.270784 2.98598 0.379L3.39098 2H15.001C15.0744 2.00007 15.1469 2.0163 15.2133 2.04755C15.2798 2.0788 15.3385 2.12429 15.3854 2.1808C15.4322 2.23731 15.4661 2.30345 15.4845 2.37452C15.5029 2.44558 15.5055 2.51984 15.492 2.592L13.992 10.592C13.9705 10.7066 13.9097 10.8101 13.8201 10.8846C13.7304 10.9591 13.6175 10.9999 13.501 11H4.50098C4.38441 10.9999 4.27154 10.9591 4.18189 10.8846C4.09223 10.8101 4.03142 10.7066 4.00998 10.592L2.51098 2.607L2.11098 1H1.00098C0.868368 1 0.741191 0.947322 0.647423 0.853553C0.553655 0.759785 0.500977 0.632608 0.500977 0.5ZM3.60298 3L4.91598 10H13.086L14.399 3H3.60298ZM5.50098 11C4.97054 11 4.46184 11.2107 4.08676 11.5858C3.71169 11.9609 3.50098 12.4696 3.50098 13C3.50098 13.5304 3.71169 14.0391 4.08676 14.4142C4.46184 14.7893 4.97054 15 5.50098 15C6.03141 15 6.54012 14.7893 6.91519 14.4142C7.29026 14.0391 7.50098 13.5304 7.50098 13C7.50098 12.4696 7.29026 11.9609 6.91519 11.5858C6.54012 11.2107 6.03141 11 5.50098 11ZM12.501 11C11.9705 11 11.4618 11.2107 11.0868 11.5858C10.7117 11.9609 10.501 12.4696 10.501 13C10.501 13.5304 10.7117 14.0391 11.0868 14.4142C11.4618 14.7893 11.9705 15 12.501 15C13.0314 15 13.5401 14.7893 13.9152 14.4142C14.2903 14.0391 14.501 13.5304 14.501 13C14.501 12.4696 14.2903 11.9609 13.9152 11.5858C13.5401 11.2107 13.0314 11 12.501 11ZM5.50098 12C5.76619 12 6.02055 12.1054 6.20808 12.2929C6.39562 12.4804 6.50098 12.7348 6.50098 13C6.50098 13.2652 6.39562 13.5196 6.20808 13.7071C6.02055 13.8946 5.76619 14 5.50098 14C5.23576 14 4.98141 13.8946 4.79387 13.7071C4.60633 13.5196 4.50098 13.2652 4.50098 13C4.50098 12.7348 4.60633 12.4804 4.79387 12.2929C4.98141 12.1054 5.23576 12 5.50098 12ZM12.501 12C12.7662 12 13.0205 12.1054 13.2081 12.2929C13.3956 12.4804 13.501 12.7348 13.501 13C13.501 13.2652 13.3956 13.5196 13.2081 13.7071C13.0205 13.8946 12.7662 14 12.501 14C12.2358 14 11.9814 13.8946 11.7939 13.7071C11.6063 13.5196 11.501 13.2652 11.501 13C11.501 12.7348 11.6063 12.4804 11.7939 12.2929C11.9814 12.1054 12.2358 12 12.501 12Z" fill="#23A6F0"/>
</svg>
