<svg width="17" height="16" viewBox="0 0 17 16" fill="none" xmlns="http://www.w3.org/2000/svg">
<path d="M12.2429 10.3439C13.2112 9.02264 13.6449 7.38444 13.4572 5.7571C13.2695 4.12976 12.4743 2.63329 11.2307 1.56708C9.98701 0.500869 8.38665 -0.0564485 6.74973 0.00662462C5.11282 0.0696978 3.56008 0.74851 2.40217 1.90726C1.24425 3.066 0.566548 4.61922 0.504647 6.25618C0.442745 7.89314 1.00121 9.49311 2.06831 10.736C3.1354 11.9789 4.63244 12.773 6.25992 12.9595C7.88739 13.1461 9.52528 12.7112 10.8459 11.7419H10.8449C10.8749 11.7819 10.9069 11.8199 10.9429 11.8569L14.7929 15.7069C14.9804 15.8946 15.2348 16.0001 15.5 16.0001C15.7653 16.0002 16.0198 15.895 16.2074 15.7074C16.395 15.5199 16.5005 15.2656 16.5006 15.0003C16.5007 14.735 16.3954 14.4806 16.2079 14.2929L12.3579 10.4429C12.3221 10.4068 12.2837 10.3733 12.2429 10.3429V10.3439ZM12.5009 6.49995C12.5009 7.22222 12.3586 7.93742 12.0822 8.60471C11.8058 9.272 11.4007 9.87831 10.89 10.389C10.3793 10.8998 9.77295 11.3049 9.10566 11.5813C8.43837 11.8577 7.72317 11.9999 7.0009 11.9999C6.27863 11.9999 5.56343 11.8577 4.89614 11.5813C4.22885 11.3049 3.62253 10.8998 3.11181 10.389C2.60109 9.87831 2.19596 9.272 1.91956 8.60471C1.64316 7.93742 1.5009 7.22222 1.5009 6.49995C1.5009 5.04126 2.08036 3.64231 3.11181 2.61086C4.14326 1.57941 5.54221 0.999948 7.0009 0.999948C8.45959 0.999948 9.85853 1.57941 10.89 2.61086C11.9214 3.64231 12.5009 5.04126 12.5009 6.49995Z" fill="#23A6F0"/>
</svg>
