<svg width="13" height="12" viewBox="0 0 13 12" fill="none" xmlns="http://www.w3.org/2000/svg">
<path d="M6.5 6C7.29565 6 8.05871 5.68393 8.62132 5.12132C9.18393 4.55871 9.5 3.79565 9.5 3C9.5 2.20435 9.18393 1.44129 8.62132 0.87868C8.05871 0.316071 7.29565 0 6.5 0C5.70435 0 4.94129 0.316071 4.37868 0.87868C3.81607 1.44129 3.5 2.20435 3.5 3C3.5 3.79565 3.81607 4.55871 4.37868 5.12132C4.94129 5.68393 5.70435 6 6.5 6ZM8.5 3C8.5 3.53043 8.28929 4.03914 7.91421 4.41421C7.53914 4.78929 7.03043 5 6.5 5C5.96957 5 5.46086 4.78929 5.08579 4.41421C4.71071 4.03914 4.5 3.53043 4.5 3C4.5 2.46957 4.71071 1.96086 5.08579 1.58579C5.46086 1.21071 5.96957 1 6.5 1C7.03043 1 7.53914 1.21071 7.91421 1.58579C8.28929 1.96086 8.5 2.46957 8.5 3ZM12.5 11C12.5 12 11.5 12 11.5 12H1.5C1.5 12 0.5 12 0.5 11C0.5 10 1.5 7 6.5 7C11.5 7 12.5 10 12.5 11ZM11.5 10.996C11.499 10.75 11.346 10.01 10.668 9.332C10.016 8.68 8.789 8 6.5 8C4.21 8 2.984 8.68 2.332 9.332C1.654 10.01 1.502 10.75 1.5 10.996H11.5Z" fill="#23A6F0"/>
</svg>
